<svg width="20" height="12" viewBox="0 0 20 12" fill="none" xmlns="http://www.w3.org/2000/svg">
<path d="M18.0625 0.900024H1.9375C1 0.900024 0.25 1.65002 0.25 2.58752V9.45002C0.25 10.3875 1 11.1375 1.9375 11.1375H18.0625C19 11.1375 19.75 10.3875 19.75 9.45002V7.72502C19.75 7.53752 19.6 7.35002 19.4125 7.35002C18.7 7.27502 18.2125 6.71252 18.2125 6.03752C18.2125 5.36252 18.7375 4.80002 19.4125 4.72502C19.6 4.72502 19.75 4.53752 19.75 4.35002V2.62502C19.75 1.65002 19 0.900024 18.0625 0.900024ZM19 4.01252C18.1 4.23752 17.425 5.06252 17.425 6.00002C17.425 6.93752 18.0625 7.76252 19 7.98752V9.41252C19 9.93752 18.5875 10.35 18.0625 10.35H14.95V9.41252C14.95 9.18752 14.8 9.03752 14.575 9.03752C14.35 9.03752 14.2 9.18752 14.2 9.41252V10.35H1.9375C1.4125 10.35 1 9.93752 1 9.41252V2.58752C1 2.06252 1.4125 1.65002 1.9375 1.65002H14.2V2.58752C14.2 2.81252 14.35 2.96252 14.575 2.96252C14.8 2.96252 14.95 2.81252 14.95 2.58752V1.65002H18.0625C18.5875 1.65002 19 2.06252 19 2.58752V4.01252Z" fill="#666666"/>
<path d="M14.5742 4.5C14.3492 4.5 14.1992 4.65 14.1992 4.875V7.125C14.1992 7.35 14.3492 7.5 14.5742 7.5C14.7992 7.5 14.9492 7.35 14.9492 7.125V4.875C14.9492 4.65 14.7617 4.5 14.5742 4.5Z" fill="#666666"/>
</svg>
