<svg width="21" height="21" viewBox="0 0 21 21" fill="none" xmlns="http://www.w3.org/2000/svg">
<path d="M20.7094 3.70994C20.6164 3.80367 20.5058 3.87806 20.384 3.92883C20.2621 3.9796 20.1314 4.00574 19.9994 4.00574C19.8674 4.00574 19.7367 3.9796 19.6148 3.92883C19.493 3.87806 19.3824 3.80367 19.2894 3.70994L18.9994 3.40994L12.8994 9.51994L9.99941 20.2599C9.94081 20.4781 9.81007 20.67 9.62848 20.8044C9.4469 20.9387 9.22517 21.0077 8.99941 20.9999C8.78976 21.0005 8.58525 20.9351 8.41478 20.8131C8.2443 20.6911 8.11649 20.5186 8.04941 20.3199L6.20941 14.7899L0.679407 12.9999C0.472426 12.9304 0.293909 12.7949 0.171121 12.6144C0.0483332 12.4338 -0.0119752 12.218 -0.000593167 11.9999C-0.0083264 11.7742 0.0606066 11.5524 0.194979 11.3709C0.329351 11.1893 0.521245 11.0585 0.739407 10.9999L11.4794 8.09994L17.5894 1.99994L17.2894 1.70994C17.1011 1.52164 16.9953 1.26624 16.9953 0.999941C16.9953 0.73364 17.1011 0.478245 17.2894 0.289941C17.4777 0.101637 17.7331 -0.00415039 17.9994 -0.00415039C18.2657 -0.00415039 18.5211 0.101637 18.7094 0.289941L20.7094 2.28994C20.8031 2.3829 20.8775 2.49351 20.9283 2.61536C20.9791 2.73722 21.0052 2.86793 21.0052 2.99994C21.0052 3.13195 20.9791 3.26266 20.9283 3.38452C20.8775 3.50638 20.8031 3.61698 20.7094 3.70994Z" fill="#666666"/>
</svg>
